<svg width="166" height="165" viewBox="0 0 166 165" fill="none" xmlns="http://www.w3.org/2000/svg">
<g clip-path="url(#clip0_102_695)">
<path d="M125.15 43.7288H111.609L114.401 29.4255C114.897 26.8803 116.558 24.8038 118.843 23.8712C121.045 22.9732 123.462 23.1899 125.476 24.4658L127.836 25.9611C130.622 27.7254 133.928 28.3 137.146 27.5777C140.364 26.8557 143.107 24.9239 144.872 22.1381L148.53 16.3636L135.74 8.26213C132.105 5.95746 127.961 4.57527 123.67 4.23559C119.379 3.89592 115.069 4.60903 111.116 6.31301C107.162 8.01459 103.684 10.6558 100.982 14.0071C98.281 17.3585 96.4387 21.3187 95.6155 25.5438L92.0663 43.7281H71.7879L68.2392 25.5442C67.416 21.319 65.5737 17.3587 62.8723 14.0073C60.171 10.6559 56.6922 8.01462 52.7382 6.31301C48.7852 4.60904 44.476 3.8959 40.1847 4.2355C35.8935 4.57511 31.7501 5.9572 28.1143 8.26175L15.3251 16.364L18.9828 22.1385C22.6256 27.8888 30.2679 29.6039 36.0182 25.9611L38.3785 24.4658C40.3913 23.1907 42.8081 22.9732 45.0096 23.8709C47.2956 24.8026 48.9574 26.8787 49.4541 29.4248L52.2457 43.7288H0.446777L5.01404 51.6228C12.1649 63.9827 25.4459 71.6852 39.7154 71.7638V114.444L63.7739 160.767H101.092L125.15 114.444V71.7642H125.878C140.231 71.7642 153.613 64.0464 160.801 51.6228L165.368 43.7288H125.15ZM99.3806 26.2795C100.084 22.6671 101.66 19.281 103.969 16.4156C106.279 13.5502 109.253 11.292 112.634 9.83724C116.014 8.38032 119.698 7.77056 123.367 8.0609C127.036 8.35123 130.579 9.5329 133.687 11.5033L143.236 17.552L141.631 20.0854C141.036 21.0315 140.258 21.85 139.344 22.4936C138.43 23.1372 137.397 23.593 136.306 23.8348C135.216 24.0825 134.087 24.1115 132.986 23.9202C131.884 23.7289 130.832 23.3211 129.889 22.7204L127.529 21.2251C124.453 19.2764 120.759 18.9464 117.394 20.3194C113.908 21.7422 111.381 24.8717 110.635 28.6905L107.7 43.7288H95.9746L99.3806 26.2795ZM53.2193 28.6898C52.4739 24.8698 49.9459 21.7399 46.4578 20.3182C43.0939 18.9464 39.4005 19.2771 36.3258 21.2251L33.9655 22.72C30.0016 25.2308 24.7343 24.0488 22.2236 20.085L20.6185 17.5516L30.1674 11.5029C33.276 9.53239 36.8186 8.35062 40.4877 8.06022C44.1567 7.76981 47.8412 8.37955 51.2211 9.83647C54.6017 11.2914 57.576 13.5496 59.8858 16.415C62.1955 19.2804 63.7708 22.6663 64.4748 26.2788L67.8801 43.7281H56.1543L53.2193 28.6898ZM121.314 47.5649V68.3106L119.664 69.5523C106.205 79.6754 98.1707 95.7732 98.1707 112.613V125.926H66.9234V112.785C66.9234 95.9447 58.8887 79.8469 45.4305 69.7238L43.5519 68.311V47.5653H121.314V47.5649ZM98.1707 156.931H66.9234V143.248L82.4277 150.917L98.1707 143.23V156.931ZM98.1707 138.962L82.4389 146.643L66.9234 138.969V129.762H98.1707V138.962ZM8.33457 49.7016L7.0982 47.5649H39.7154V67.9247C26.8108 67.8456 14.8019 60.8804 8.33457 49.7016ZM43.5515 73.1207C55.7922 82.5406 63.0869 97.3238 63.0869 112.785V151.121L43.5515 113.506V73.1207ZM102.007 150.683V112.613C102.007 97.2486 109.211 82.5533 121.315 73.126V113.507L102.007 150.683ZM157.48 49.7016C150.975 60.9441 138.866 67.9281 125.878 67.9281H125.15V47.5649H158.716L157.48 49.7016Z" fill="#BF616A"/>
<path d="M51.6538 100.124C53.8519 100.124 55.6337 98.3418 55.6337 96.1438C55.6337 93.9457 53.8519 92.1638 51.6538 92.1638C49.4557 92.1638 47.6738 93.9457 47.6738 96.1438C47.6738 98.3418 49.4557 100.124 51.6538 100.124Z" fill="#BF616A"/>
<path d="M112.201 100.124C114.399 100.124 116.181 98.3418 116.181 96.1438C116.181 93.9457 114.399 92.1638 112.201 92.1638C110.003 92.1638 108.221 93.9457 108.221 96.1438C108.221 98.3418 110.003 100.124 112.201 100.124Z" fill="#BF616A"/>
</g>
<defs>
<clipPath id="clip0_102_695">
<rect width="164.921" height="164.921" fill="white" transform="translate(0.446777)"/>
</clipPath>
</defs>
</svg>
