<svg width="174" height="174" viewBox="0 0 174 174" fill="none" xmlns="http://www.w3.org/2000/svg">
<path d="M167.174 104.666C167.174 104.666 162.454 98.5718 160.58 101.697C160.58 101.697 167.765 110.444 164.014 120.755C164.014 120.755 157.141 112.478 156.05 114.351C156.05 114.351 159.798 122.163 158.706 128.879C158.706 128.879 152.612 125.441 150.112 125.91C150.112 125.91 150.894 135.126 147.3 137.003C143.708 138.877 140.74 131.535 140.114 131.535C139.488 131.535 139.801 141.377 136.523 142.468C133.241 143.563 132.303 138.877 130.898 139.503C129.49 140.125 129.014 144.189 127.3 144.189C125.586 144.189 118.557 139.503 118.557 139.503L117.972 140.142C116.357 144.311 113.187 148.382 107.477 151.589C105.903 152.473 104.138 153.293 102.155 154.031C102.155 154.031 87.0218 156.058 87.0014 145.927C87.0014 156.078 71.8478 154.048 71.8478 154.048C69.8651 153.31 68.0969 152.49 66.5221 151.606C60.8464 148.413 57.6902 144.359 56.075 140.207L55.4459 139.52C55.4459 139.52 48.4132 144.206 46.6994 144.206C44.9855 144.206 44.5094 140.146 43.1048 139.52C41.6969 138.894 40.7582 143.58 37.4801 142.489C34.1982 141.394 34.5112 131.552 33.8855 131.552C33.2633 131.552 30.2944 138.894 26.6999 137.02C23.1088 135.146 23.8873 125.931 23.8873 125.931C21.3878 125.461 15.2971 128.896 15.2971 128.896C14.2021 122.18 17.953 114.368 17.953 114.368C16.858 112.494 9.98501 120.775 9.98501 120.775C6.23382 110.464 13.4232 101.714 13.4232 101.714C11.5459 98.5922 6.82582 104.683 6.82582 104.683C4.39764 93.1476 13.1241 82.9047 13.845 82.0816L6.85981 89.3729C6.24435 80.6022 14.1168 71.9848 14.3517 71.7299L8.89004 75.9399C9.35256 67.3259 16.1712 62.3506 16.3853 62.1977L12.4846 63.7552C18.266 48.7579 29.1991 48.1322 29.1991 48.1322C24.3563 43.2894 25.9172 32.5126 25.9172 32.5126C12.3279 21.5758 23.7307 7.51713 23.7307 7.51713C38.5716 0.797403 52.79 20.7935 52.79 20.7935C70.1306 11.1083 87.0014 10.7953 87.0014 10.7953V10.7783C87.0014 10.7783 103.873 11.0913 121.213 20.7765C121.213 20.7765 135.428 0.780071 150.269 7.49674C150.269 7.49674 161.672 21.5554 148.082 32.4923C148.082 32.4923 149.643 43.2728 144.801 48.1152C144.801 48.1152 155.738 48.7375 161.519 63.7348L157.615 62.1773C157.829 62.3302 164.647 67.3089 165.11 75.9195L159.648 71.7095C159.883 71.9648 167.755 80.5856 167.14 89.3559L160.155 82.0646C160.875 82.8877 169.602 93.1306 167.174 104.666Z" fill="#ECEFF4" stroke="#4C566A" stroke-width="6" stroke-miterlimit="10" stroke-linecap="round" stroke-linejoin="round"/>
<path d="M56.0751 140.207C52.0724 129.937 57.4796 119.058 57.4762 119.054" stroke="#4C566A" stroke-width="6" stroke-miterlimit="10" stroke-linecap="round" stroke-linejoin="round"/>
<path d="M69.3477 116.244L71.8469 129.054" stroke="#4C566A" stroke-width="6" stroke-miterlimit="10" stroke-linecap="round" stroke-linejoin="round"/>
<path d="M60.3668 46.6868C69.62 31.6895 87.0014 30.5198 87.0014 30.5198M66.9264 32.6282C66.9264 32.6282 55.21 37.6664 52.1636 49.9684C52.1636 49.9684 51.1091 58.2871 44.7822 60.0444M52.8277 74.6899C52.8277 74.6899 69.2697 70.0426 70.246 85.5864V90.8587V85.5864C70.246 85.586 57.9046 93.7878 52.8277 74.6899Z" stroke="#4C566A" stroke-width="6" stroke-miterlimit="10" stroke-linecap="round" stroke-linejoin="round"/>
<path d="M52.1637 49.9683C52.1637 49.9683 50.9919 62.1534 48.8831 68.1288C46.7741 74.1043 40.5644 79.2594 44.7822 92.3818C49 105.504 60.3651 100.232 60.3651 100.232" stroke="#4C566A" stroke-width="6" stroke-miterlimit="10" stroke-linecap="round" stroke-linejoin="round"/>
<path d="M40.4473 60.9814C40.4473 60.9814 34.1204 79.8448 37.8696 96.4822C37.8696 96.4822 39.8614 102.692 47.7115 104.801M37.8696 96.4822C37.8696 96.4822 35.7605 116.166 53.6866 124.133M87.0015 145.927C87.0015 145.92 87.0015 145.913 87.0015 145.907M116.527 119.037C116.527 119.037 121.951 129.882 117.972 140.142" stroke="#4C566A" stroke-width="6" stroke-miterlimit="10" stroke-linecap="round" stroke-linejoin="round"/>
<path d="M104.653 116.225L102.154 129.035" stroke="#4C566A" stroke-width="6" stroke-miterlimit="10" stroke-linecap="round" stroke-linejoin="round"/>
<path d="M87.0015 30.499C87.0015 30.499 104.379 31.6722 113.636 46.6695M107.075 32.6091C107.075 32.6091 118.791 37.6473 121.837 49.9493C121.837 49.9493 122.892 58.268 129.219 60.0253M121.173 74.6712C121.173 74.6712 104.731 70.0239 103.755 85.5676V90.84V85.5676C103.755 85.5673 116.096 93.7691 121.173 74.6712Z" stroke="#4C566A" stroke-width="6" stroke-miterlimit="10" stroke-linecap="round" stroke-linejoin="round"/>
<path d="M121.837 49.9495C121.837 49.9495 123.009 62.1346 125.118 68.11C127.227 74.0855 133.436 79.2406 129.219 92.363C125.001 105.485 113.636 100.213 113.636 100.213" stroke="#4C566A" stroke-width="6" stroke-miterlimit="10" stroke-linecap="round" stroke-linejoin="round"/>
<path d="M133.554 60.9629C133.554 60.9629 139.881 79.8263 136.131 96.4636C136.131 96.4636 134.14 102.673 126.29 104.782M136.131 96.4636C136.131 96.4636 138.241 116.147 120.314 124.114" stroke="#4C566A" stroke-width="6" stroke-miterlimit="10" stroke-linecap="round" stroke-linejoin="round"/>
<path d="M87.0012 167.933V167.954C62.941 169.515 66.5219 151.606 66.5219 151.606C68.0964 152.491 69.865 153.31 71.8476 154.048C71.8476 154.048 87.0012 156.078 87.0012 145.927C87.0216 156.058 102.155 154.031 102.155 154.031C104.138 153.293 105.902 152.474 107.477 151.589C107.477 151.589 111.058 169.494 87.0012 167.933Z" fill="#ECEFF4" stroke="#4C566A" stroke-width="6" stroke-miterlimit="10" stroke-linecap="round" stroke-linejoin="round"/>
<path d="M101.4 132.94C101.4 132.94 92.9629 139.19 92.497 141.221C92.1296 142.802 88.7563 143.734 87.2838 144.064C87.1546 144.094 87.0387 144.122 86.9402 144.139C86.845 144.118 86.7329 144.094 86.6034 144.064C85.158 143.734 81.8697 142.819 81.5057 141.238C81.0364 139.207 72.5991 132.96 72.5991 132.96C74.6327 128.587 82.441 134.208 82.441 134.208C84.2741 133.722 86.1986 133.998 86.9538 134.14C87.6304 134.004 89.647 133.681 91.5583 134.191C91.5583 134.191 99.37 128.566 101.4 132.94Z" stroke="#4C566A" stroke-width="6" stroke-miterlimit="10" stroke-linecap="round" stroke-linejoin="round"/>
<path d="M48.6803 25.5684C48.6803 25.5684 38.2692 12.0725 27.6654 10.5303C27.6654 10.5303 25.9301 9.95192 25.3517 12.2656C24.7733 14.5792 19.9533 21.5199 28.2438 28.8462M86.9403 144.138C86.7296 144.186 86.6035 144.206 86.6035 144.206V144.063C86.7326 144.094 86.8451 144.118 86.9403 144.138Z" stroke="#4C566A" stroke-width="6" stroke-miterlimit="10" stroke-linecap="round" stroke-linejoin="round"/>
<path d="M66.9784 134.329C67.0428 134.329 67.095 134.277 67.095 134.213C67.095 134.148 67.0428 134.096 66.9784 134.096C66.914 134.096 66.8618 134.148 66.8618 134.213C66.8618 134.277 66.914 134.329 66.9784 134.329Z" stroke="#4C566A" stroke-width="6" stroke-miterlimit="10" stroke-linecap="round" stroke-linejoin="round"/>
<path d="M68.3387 143.171C68.4031 143.171 68.4553 143.119 68.4553 143.055C68.4553 142.99 68.4031 142.938 68.3387 142.938C68.2744 142.938 68.2222 142.99 68.2222 143.055C68.2222 143.119 68.2744 143.171 68.3387 143.171Z" stroke="#4C566A" stroke-width="6" stroke-miterlimit="10" stroke-linecap="round" stroke-linejoin="round"/>
<path d="M60.517 129.228C60.5813 129.228 60.6335 129.176 60.6335 129.112C60.6335 129.047 60.5813 128.995 60.517 128.995C60.4526 128.995 60.4004 129.047 60.4004 129.112C60.4004 129.176 60.4526 129.228 60.517 129.228Z" stroke="#4C566A" stroke-width="6" stroke-miterlimit="10" stroke-linecap="round" stroke-linejoin="round"/>
<path d="M63.5775 138.75C63.6419 138.75 63.6941 138.698 63.6941 138.634C63.6941 138.57 63.6419 138.517 63.5775 138.517C63.5131 138.517 63.4609 138.57 63.4609 138.634C63.4609 138.698 63.5131 138.75 63.5775 138.75Z" stroke="#4C566A" stroke-width="6" stroke-miterlimit="10" stroke-linecap="round" stroke-linejoin="round"/>
<path d="M111.689 135.877C111.754 135.877 111.806 135.825 111.806 135.761C111.806 135.696 111.754 135.644 111.689 135.644C111.625 135.644 111.573 135.696 111.573 135.761C111.573 135.825 111.625 135.877 111.689 135.877Z" stroke="#4C566A" stroke-width="6" stroke-miterlimit="10" stroke-linecap="round" stroke-linejoin="round"/>
<path d="M106.4 143.092C106.464 143.092 106.516 143.039 106.516 142.975C106.516 142.911 106.464 142.858 106.4 142.858C106.335 142.858 106.283 142.911 106.283 142.975C106.283 143.039 106.335 143.092 106.4 143.092Z" stroke="#4C566A" stroke-width="6" stroke-miterlimit="10" stroke-linecap="round" stroke-linejoin="round"/>
<path d="M110.727 127.702C110.792 127.702 110.844 127.65 110.844 127.586C110.844 127.521 110.792 127.469 110.727 127.469C110.663 127.469 110.611 127.521 110.611 127.586C110.611 127.65 110.663 127.702 110.727 127.702Z" stroke="#4C566A" stroke-width="6" stroke-miterlimit="10" stroke-linecap="round" stroke-linejoin="round"/>
<path d="M106.159 136.599C106.223 136.599 106.276 136.547 106.276 136.483C106.276 136.418 106.223 136.366 106.159 136.366C106.095 136.366 106.042 136.418 106.042 136.483C106.042 136.547 106.095 136.599 106.159 136.599Z" stroke="#4C566A" stroke-width="6" stroke-miterlimit="10" stroke-linecap="round" stroke-linejoin="round"/>
</svg>
